# xmcd
#
# Track frame offsets:
#	150
#	18750
#	37800
#	55425
#	79072
#	91575
#	113400
#	135450
#	151925
#	178800
#	192622
#	213525
#	229950
#	244522
#
# Disc length: 3426 seconds
#
# Revision: 1
# Processed by: cddbd v1.4PL0 Copyright (c) Steve Scherf et al.
# Submitted via: audiograbber 1.82.01
#
DISCID=ab0d600e
DTITLE=Black Mountain Blues Band - Plug'n Play!
DYEAR=1997
DGENRE=Blues
TTITLE0=Soft Touch
TTITLE1=Wake Up Call
TTITLE2="W"
TTITLE3=One Step Forward
TTITLE4=Don't Worry Baby
TTITLE5=Ain't No Breakman
TTITLE6=In The Deep Cold Night
TTITLE7=Workin' For A Livin'
TTITLE8=Friday Evening Big Time Show
TTITLE9=One After 909
TTITLE10=Gimme Some Love
TTITLE11=Seemed Like A Good Idea
TTITLE12=Left Me With The Blues
TTITLE13=I Go Crazy
EXTD=
EXTT0=
EXTT1=
EXTT2=
EXTT3=
EXTT4=
EXTT5=
EXTT6=
EXTT7=
EXTT8=
EXTT9=
EXTT10=
EXTT11=
EXTT12=
EXTT13=
PLAYORDER=
